<?xml version="1.0" encoding="UTF-8" standalone="no"?>
<!-- Created with Inkscape (http://www.inkscape.org/) -->

<svg
   width="79.784531mm"
   height="36.328983mm"
   viewBox="0 0 79.784531 36.328983"
   version="1.1"
   id="svg26076"
   inkscape:export-filename="bitmap.svg"
   inkscape:export-xdpi="96"
   inkscape:export-ydpi="96"
   xmlns:inkscape="http://www.inkscape.org/namespaces/inkscape"
   xmlns:sodipodi="http://sodipodi.sourceforge.net/DTD/sodipodi-0.dtd"
   xmlns:xlink="http://www.w3.org/1999/xlink"
   xmlns="http://www.w3.org/2000/svg"
   xmlns:svg="http://www.w3.org/2000/svg">
  <sodipodi:namedview
     id="namedview26078"
     pagecolor="#ffffff"
     bordercolor="#000000"
     borderopacity="0.25"
     inkscape:showpageshadow="2"
     inkscape:pageopacity="0.0"
     inkscape:pagecheckerboard="0"
     inkscape:deskcolor="#d1d1d1"
     inkscape:document-units="mm"
     showgrid="false" />
  <defs
     id="defs26073">
    <linearGradient
       inkscape:collect="always"
       xlink:href="#linearGradient1959"
       id="linearGradient1961"
       x1="-1073.3494"
       y1="-1708.4144"
       x2="-1087.229"
       y2="-1758.9976"
       gradientUnits="userSpaceOnUse"
       gradientTransform="matrix(0.29100028,0,0,0.29100028,395.25031,630.12906)" />
    <linearGradient
       inkscape:collect="always"
       id="linearGradient1959">
      <stop
         style="stop-color:#330080;stop-opacity:1"
         offset="0"
         id="stop1955" />
      <stop
         style="stop-color:#ff7f2a;stop-opacity:1"
         offset="1"
         id="stop1957" />
    </linearGradient>
  </defs>
  <g
     inkscape:label="Layer 1"
     inkscape:groupmode="layer"
     id="layer1"
     transform="translate(-62.078918,-112.17102)">
    <path
       id="rect2821"
       style="fill:url(#linearGradient1961);fill-opacity:1;stroke-width:0.0182209"
       d="m 76.818148,112.17102 c -0.02205,0 -0.04431,0.005 -0.06685,0.01 l -0.100843,0.0268 c -0.142881,0.0383 -0.227126,0.1842 -0.18883,0.32707 l 0.673872,2.51502 c 0.03833,0.1429 0.184218,0.22708 0.327065,0.18877 l 0.100891,-0.0268 c 0.142924,-0.0383 0.227078,-0.1842 0.188788,-0.3271 l -0.673885,-2.51501 c -0.03235,-0.12056 -0.14115,-0.19937 -0.260212,-0.19805 z m 7.8191,0.75332 c -0.09016,0.005 -0.176879,0.0498 -0.225436,0.13371 l -1.301844,2.25488 c -0.07396,0.12814 -0.0304,0.29085 0.09775,0.36481 l 0.09044,0.0522 c 0.128141,0.074 0.290779,0.0304 0.364707,-0.0978 l 1.301948,-2.25482 c 0.07396,-0.12814 0.0304,-0.2909 -0.09781,-0.3648 l -0.09038,-0.0522 c -0.04431,-0.0255 -0.09219,-0.0369 -0.139382,-0.0359 z m -4.731907,3.31059 a 6.7323862,6.7323862 0 0 0 -1.632241,0.22858 6.7323862,6.7323862 0 0 0 -0.0049,0.005 l 8.4e-5,-0.005 a 6.7323862,6.7323862 0 0 0 -4.756241,8.24429 6.7323862,6.7323862 0 0 0 0.622448,1.53513 l 1.349156,-0.36148 a 5.3887298,5.3887298 0 0 1 -0.673705,-1.52148 5.3887298,5.3887298 0 0 1 3.795389,-6.59566 5.3887298,5.3887298 0 0 1 0.01503,-0.005 5.3887298,5.3887298 0 0 1 6.599678,3.81033 5.3887298,5.3887298 0 0 1 0.177331,1.65446 l 1.349156,-0.36148 a 6.7323862,6.7323862 0 0 0 -0.228628,-1.64065 6.7323862,6.7323862 0 0 0 -6.613125,-4.98903 z m -9.518326,0.75833 c -0.09016,0.005 -0.176886,0.0498 -0.225436,0.13373 l -0.05217,0.0904 c -0.07398,0.12814 -0.0304,0.29081 0.09775,0.36483 l 2.254877,1.30184 c 0.128134,0.074 0.290863,0.0304 0.364825,-0.0978 l 0.0521,-0.0904 c 0.07402,-0.1281 0.0304,-0.2908 -0.09763,-0.36481 l -2.254947,-1.30181 c -0.04383,-0.0254 -0.09218,-0.0369 -0.139375,-0.0359 z m 9.202747,1.79869 c -0.07878,0 -0.158764,0.0115 -0.238493,0.0328 l -0.347427,0.0932 c -0.510399,0.13676 -0.811181,0.65768 -0.674421,1.16803 l 0.04779,0.17835 c -1.159011,0.83392 -1.708874,2.4926 -1.260689,4.16514 l 0.658053,2.45565 -0.02991,0.008 -1.859513,2.26692 0.237394,0.88593 2.323323,-0.62248 6.449026,-1.72807 2.323295,-0.62246 -0.237394,-0.88593 -2.76554,-1.02773 -0.0079,0.005 -0.657949,-2.45562 c -0.425584,-1.58821 -1.624227,-2.71577 -2.96045,-2.94761 0,-0.005 -0.0049,-0.01 -0.0049,-0.0138 l -0.06588,-0.24566 c -0.115375,-0.43061 -0.504312,-0.71202 -0.929576,-0.70736 z m 10.648648,1.89265 c -0.02177,0 -0.04431,0.005 -0.06678,0.01 l -2.515026,0.67386 c -0.142916,0.0383 -0.227134,0.1842 -0.188837,0.32708 l 0.02685,0.10079 c 0.03833,0.14294 0.184162,0.22713 0.327057,0.18884 l 2.514999,-0.67383 c 0.142916,-0.0383 0.227147,-0.18419 0.188851,-0.32706 l -0.02685,-0.10082 c -0.03235,-0.12057 -0.141212,-0.19937 -0.260267,-0.19806 z m -18.300526,5.15419 c -0.02233,0 -0.04431,0.005 -0.06685,0.01 l -2.51495,0.67386 c -0.142924,0.0383 -0.227132,0.18416 -0.188843,0.32708 h 5.4e-5 l 0.02685,0.10079 c 0.03833,0.14293 0.184184,0.22712 0.327099,0.18883 l 2.514957,-0.67386 c 0.142923,-0.0383 0.227147,-0.18421 0.188837,-0.32708 l -0.02685,-0.10085 c -0.03235,-0.1209 -0.141283,-0.1998 -0.26029,-0.19844 z m 11.942764,2.49754 c -0.0263,0 -0.05294,0.005 -0.07946,0.011 l -4.053402,1.08616 c -0.170166,0.0454 -0.270466,0.21917 -0.2249,0.38933 0.04529,0.17013 0.219272,0.27043 0.389423,0.22481 l 4.053402,-1.08618 c 0.170117,-0.0453 0.270348,-0.21919 0.224789,-0.38932 -0.03833,-0.14351 -0.168064,-0.23728 -0.309847,-0.23572 z m 0.275175,0.86871 c -0.0263,0 -0.05294,0.005 -0.07953,0.011 l -4.053375,1.0861 c -0.170123,0.0454 -0.270424,0.21923 -0.224802,0.38934 0.04536,0.17013 0.219223,0.27036 0.389347,0.22481 l 4.053374,-1.08606 c 0.170124,-0.0459 0.270459,-0.21927 0.224893,-0.38939 -0.03833,-0.14356 -0.168169,-0.23739 -0.309903,-0.23578 z m 0.20817,0.91063 c -0.02546,0 -0.05141,0.005 -0.07724,0.011 l -3.936059,1.05462 c -0.165184,0.0443 -0.262535,0.21289 -0.218228,0.37813 0.04431,0.16519 0.255558,0.31418 0.432631,0.39834 1.45363,0.69067 3.102574,0.0918 3.930562,-1.16926 0.09391,-0.14297 0.213429,-0.27837 0.169171,-0.44351 -0.03736,-0.13938 -0.163188,-0.23047 -0.300838,-0.22904 z" />
    <g
       aria-label="mindery"
       id="text1628"
       style="font-size:79.1848px;font-family:'Lilita One';-inkscape-font-specification:'Lilita One, Normal';fill:#330080;stroke-width:1.96063"
       transform="matrix(0.28260875,0,0,0.28260875,386.58645,610.59131)">
      <path
         d="m -1110.4069,-1649.8996 q 0,0.5543 -6.8099,0.5543 -6.7307,0 -6.7307,-0.7127 v -23.0427 q 0,-3.9593 -2.6131,-3.9593 -1.3462,0 -3.5633,1.7421 v 25.3391 q 0,0.7919 -6.8099,0.7919 -6.7307,0 -6.7307,-0.8711 v -25.8934 h -1.9796 q -2.6131,0 -2.6131,-5.4637 0,-2.4548 0.9502,-4.9887 1.2669,-3.4841 4.1176,-3.4841 2.8506,0 5.4637,1.5045 2.6923,1.5045 3.2466,2.8507 4.9095,-4.3552 10.8483,-4.3552 6.0181,0 9.6606,3.7217 4.276,-3.7217 10.294,-3.7217 13.0655,0 13.0655,15.9161 v 24.0722 q 0,0.5543 -6.8099,0.5543 -6.7307,0 -6.7307,-0.7127 v -23.0427 q 0,-3.9593 -2.6131,-3.9593 -1.4253,0 -3.6425,1.7421 z"
         id="path1630"
         style="fill:#330080;stroke-width:1.96063" />
      <path
         d="m -1069.3892,-1649.9788 q 0,0.6335 -7.285,0.6335 -7.2058,0 -7.2058,-0.5543 v -38.8797 q 0,-0.5543 7.2058,-0.5543 7.285,0 7.285,0.4751 z"
         id="path1632"
         style="fill:#330080;stroke-width:1.96063" />
      <path
         d="m -1045.7129,-1649.9788 q 0,0.5543 -5.7013,0.5543 -7.9185,-0.2375 -7.9185,-0.871 v -25.6559 h -2.0588 q -2.0588,0 -2.6922,-3.4841 -0.1584,-1.0294 -0.1584,-2.0588 0,-2.4547 0.9502,-4.9095 1.4253,-3.4841 4.4344,-3.4841 3.009,0 5.3845,1.4253 2.3756,1.4253 3.1674,2.8507 4.9887,-4.276 11.8777,-4.276 6.8891,0 9.9773,3.7217 3.0882,3.7217 3.0882,12.1944 v 23.7555 q 0,0.9502 -6.8099,0.9502 -6.7307,0 -6.7307,-0.9502 v -22.8844 q 0,-3.9593 -2.7714,-3.9593 -0.7919,0 -2.2172,0.7127 -1.4253,0.6335 -1.8213,0.9502 z"
         id="path1634"
         style="fill:#330080;stroke-width:1.96063" />
      <path
         d="m -998.59787,-1704.4579 q 0,-1.1878 6.2556,-1.1878 2.13799,0 4.90946,0.3168 2.85065,0.2375 2.85065,0.7126 v 41.7304 h 2.77147 q 1.97962,0 2.6131,3.5633 0.15837,1.0294 0.15837,2.8507 0,1.742 -1.10859,4.276 -1.5837,3.4841 -5.06783,3.4841 -2.6131,0 -4.6719,-1.0294 -1.97962,-1.0294 -2.69228,-2.138 l -0.71267,-1.0294 q -4.35516,4.1968 -10.92751,4.1968 -6.5723,0 -11.2442,-5.4638 -4.6719,-5.4637 -4.6719,-15.2034 0,-9.819 4.9094,-15.1243 4.9095,-5.3846 12.2737,-5.3846 2.138,0 4.35513,0.4751 z m -2.61313,27.2396 q -4.4343,0 -4.4343,7.9976 0,4.0384 1.2669,5.8597 1.267,1.7421 2.7715,1.7421 1.5837,0 3.00903,-1.3462 v -13.4614 q -1.34614,-0.7918 -2.61313,-0.7918 z"
         id="path1636"
         style="fill:#330080;stroke-width:1.96063" />
      <path
         d="m -943.96032,-1651.6417 q -4.98864,2.9299 -12.82794,2.9299 -7.83929,0 -13.22386,-5.3054 -5.38457,-5.3846 -5.38457,-14.8076 0,-9.5021 5.14702,-15.2826 5.22619,-5.7805 13.14467,-5.7805 7.91848,0 12.19446,4.0384 4.35517,4.0384 4.35517,9.8189 0,12.828 -14.72838,12.828 h -5.46375 q 0,2.3755 1.26696,3.3257 1.34614,0.8711 3.88005,0.8711 5.54294,0 10.53158,-2.534 0.0792,-0.079 0.71267,1.1086 1.90043,3.405 1.90043,5.7805 0,2.2964 -1.50451,3.009 z m -9.8981,-22.8844 q 0,-3.3257 -3.24658,-3.3257 -1.50451,0 -2.6131,0.9502 -1.0294,0.871 -1.0294,2.6131 v 2.4547 h 4.27598 q 2.6131,0 2.6131,-2.6923 z"
         id="path1638"
         style="fill:#330080;stroke-width:1.96063" />
      <path
         d="m -918.06688,-1649.5828 q 0,0.5542 -7.20581,0.5542 -7.20582,-0.1583 -7.20582,-0.6334 v -26.2894 h -2.13799 q -1.26696,0 -2.05881,-1.5045 -0.71266,-1.5837 -0.71266,-3.8801 0,-8.5519 5.06783,-8.5519 3.56331,0 5.93886,2.2172 2.37554,2.138 2.37554,4.9094 1.66288,-3.2466 4.43435,-5.147 2.85065,-1.9796 5.78049,-1.9796 4.59272,0 5.54294,2.3755 0.23755,0.6335 0.23755,1.9005 0,1.1877 -0.79185,4.3551 -0.71266,3.1674 -1.50451,4.5928 -0.79185,1.4253 -0.95021,1.4253 -0.15837,0 -1.50452,-0.5543 -1.26695,-0.6335 -2.29636,-0.6335 -3.00902,0 -3.00902,4.7511 z"
         id="path1640"
         style="fill:#330080;stroke-width:1.96063" />
      <path
         d="m -906.82264,-1688.7001 q 0,-0.8711 7.20582,-0.8711 7.285,0 7.52255,0.7919 l 5.70131,18.6876 5.46375,-18.846 q 0.31674,-0.6335 4.90946,-0.6335 10.53158,0 10.05647,1.0294 l -18.60843,52.9747 q -0.0792,0.4751 -4.35516,0.4751 -4.1968,0 -7.8393,-0.3168 -3.6425,-0.2375 -3.48413,-0.6334 l 6.88908,-16.6289 z"
         id="path1642"
         style="fill:#330080;stroke-width:1.96063" />
    </g>
    <g
       aria-label="mindery"
       id="g15432"
       style="font-size:79.1848px;font-family:'Lilita One';-inkscape-font-specification:'Lilita One, Normal';fill:#330080;stroke-width:1.96063"
       transform="matrix(0.28260875,0,0,0.28260875,386.58645,610.59131)">
      <path
         d="m -1110.4069,-1649.8996 q 0,0.5543 -6.8099,0.5543 -6.7307,0 -6.7307,-0.7127 v -23.0427 q 0,-3.9593 -2.6131,-3.9593 -1.3462,0 -3.5633,1.7421 v 25.3391 q 0,0.7919 -6.8099,0.7919 -6.7307,0 -6.7307,-0.8711 v -25.8934 h -1.9796 q -2.6131,0 -2.6131,-5.4637 0,-2.4548 0.9502,-4.9887 1.2669,-3.4841 4.1176,-3.4841 2.8506,0 5.4637,1.5045 2.6923,1.5045 3.2466,2.8507 4.9095,-4.3552 10.8483,-4.3552 6.0181,0 9.6606,3.7217 4.276,-3.7217 10.294,-3.7217 13.0655,0 13.0655,15.9161 v 24.0722 q 0,0.5543 -6.8099,0.5543 -6.7307,0 -6.7307,-0.7127 v -23.0427 q 0,-3.9593 -2.6131,-3.9593 -1.4253,0 -3.6425,1.7421 z"
         id="path15418"
         style="fill:#330080;stroke-width:1.96063" />
      <path
         d="m -1069.3892,-1649.9788 q 0,0.6335 -7.285,0.6335 -7.2058,0 -7.2058,-0.5543 v -38.8797 q 0,-0.5543 7.2058,-0.5543 7.285,0 7.285,0.4751 z"
         id="path15420"
         style="fill:#330080;stroke-width:1.96063" />
      <path
         d="m -1045.7129,-1649.9788 q 0,0.5543 -5.7013,0.5543 -7.9185,-0.2375 -7.9185,-0.871 v -25.6559 h -2.0588 q -2.0588,0 -2.6922,-3.4841 -0.1584,-1.0294 -0.1584,-2.0588 0,-2.4547 0.9502,-4.9095 1.4253,-3.4841 4.4344,-3.4841 3.009,0 5.3845,1.4253 2.3756,1.4253 3.1674,2.8507 4.9887,-4.276 11.8777,-4.276 6.8891,0 9.9773,3.7217 3.0882,3.7217 3.0882,12.1944 v 23.7555 q 0,0.9502 -6.8099,0.9502 -6.7307,0 -6.7307,-0.9502 v -22.8844 q 0,-3.9593 -2.7714,-3.9593 -0.7919,0 -2.2172,0.7127 -1.4253,0.6335 -1.8213,0.9502 z"
         id="path15422"
         style="fill:#330080;stroke-width:1.96063" />
      <path
         d="m -998.59787,-1704.4579 q 0,-1.1878 6.2556,-1.1878 2.13799,0 4.90946,0.3168 2.85065,0.2375 2.85065,0.7126 v 41.7304 h 2.77147 q 1.97962,0 2.6131,3.5633 0.15837,1.0294 0.15837,2.8507 0,1.742 -1.10859,4.276 -1.5837,3.4841 -5.06783,3.4841 -2.6131,0 -4.6719,-1.0294 -1.97962,-1.0294 -2.69228,-2.138 l -0.71267,-1.0294 q -4.35516,4.1968 -10.92751,4.1968 -6.5723,0 -11.2442,-5.4638 -4.6719,-5.4637 -4.6719,-15.2034 0,-9.819 4.9094,-15.1243 4.9095,-5.3846 12.2737,-5.3846 2.138,0 4.35513,0.4751 z m -2.61313,27.2396 q -4.4343,0 -4.4343,7.9976 0,4.0384 1.2669,5.8597 1.267,1.7421 2.7715,1.7421 1.5837,0 3.00903,-1.3462 v -13.4614 q -1.34614,-0.7918 -2.61313,-0.7918 z"
         id="path15424"
         style="fill:#330080;stroke-width:1.96063" />
      <path
         d="m -943.96032,-1651.6417 q -4.98864,2.9299 -12.82794,2.9299 -7.83929,0 -13.22386,-5.3054 -5.38457,-5.3846 -5.38457,-14.8076 0,-9.5021 5.14702,-15.2826 5.22619,-5.7805 13.14467,-5.7805 7.91848,0 12.19446,4.0384 4.35517,4.0384 4.35517,9.8189 0,12.828 -14.72838,12.828 h -5.46375 q 0,2.3755 1.26696,3.3257 1.34614,0.8711 3.88005,0.8711 5.54294,0 10.53158,-2.534 0.0792,-0.079 0.71267,1.1086 1.90043,3.405 1.90043,5.7805 0,2.2964 -1.50451,3.009 z m -9.8981,-22.8844 q 0,-3.3257 -3.24658,-3.3257 -1.50451,0 -2.6131,0.9502 -1.0294,0.871 -1.0294,2.6131 v 2.4547 h 4.27598 q 2.6131,0 2.6131,-2.6923 z"
         id="path15426"
         style="fill:#330080;stroke-width:1.96063" />
      <path
         d="m -918.06688,-1649.5828 q 0,0.5542 -7.20581,0.5542 -7.20582,-0.1583 -7.20582,-0.6334 v -26.2894 h -2.13799 q -1.26696,0 -2.05881,-1.5045 -0.71266,-1.5837 -0.71266,-3.8801 0,-8.5519 5.06783,-8.5519 3.56331,0 5.93886,2.2172 2.37554,2.138 2.37554,4.9094 1.66288,-3.2466 4.43435,-5.147 2.85065,-1.9796 5.78049,-1.9796 4.59272,0 5.54294,2.3755 0.23755,0.6335 0.23755,1.9005 0,1.1877 -0.79185,4.3551 -0.71266,3.1674 -1.50451,4.5928 -0.79185,1.4253 -0.95021,1.4253 -0.15837,0 -1.50452,-0.5543 -1.26695,-0.6335 -2.29636,-0.6335 -3.00902,0 -3.00902,4.7511 z"
         id="path15428"
         style="fill:#330080;stroke-width:1.96063" />
      <path
         d="m -906.82264,-1688.7001 q 0,-0.8711 7.20582,-0.8711 7.285,0 7.52255,0.7919 l 5.70131,18.6876 5.46375,-18.846 q 0.31674,-0.6335 4.90946,-0.6335 10.53158,0 10.05647,1.0294 l -18.60843,52.9747 q -0.0792,0.4751 -4.35516,0.4751 -4.1968,0 -7.8393,-0.3168 -3.6425,-0.2375 -3.48413,-0.6334 l 6.88908,-16.6289 z"
         id="path15430"
         style="fill:#330080;stroke-width:1.96063" />
    </g>
  </g>
</svg>
