<?xml version="1.0" encoding="UTF-8" standalone="no"?>
<!-- Created with Inkscape (http://www.inkscape.org/) -->

<svg
   width="381.59775"
   height="100.01907"
   viewBox="0 0 100.96441 26.463379"
   version="1.1"
   id="svg10464"
   inkscape:version="1.2.2 (b0a8486541, 2022-12-01)"
   sodipodi:docname="mindery-logo1.0.svg"
   inkscape:export-filename="minderyicon3.png"
   inkscape:export-xdpi="96"
   inkscape:export-ydpi="96"
   xmlns:inkscape="http://www.inkscape.org/namespaces/inkscape"
   xmlns:sodipodi="http://sodipodi.sourceforge.net/DTD/sodipodi-0.dtd"
   xmlns:xlink="http://www.w3.org/1999/xlink"
   xmlns="http://www.w3.org/2000/svg"
   xmlns:svg="http://www.w3.org/2000/svg">
  <sodipodi:namedview
     id="namedview10466"
     pagecolor="#ffffff"
     bordercolor="#000000"
     borderopacity="0.25"
     inkscape:showpageshadow="2"
     inkscape:pageopacity="0.0"
     inkscape:pagecheckerboard="false"
     inkscape:deskcolor="#d1d1d1"
     inkscape:document-units="px"
     showgrid="false"
     showborder="false"
     inkscape:zoom="1.0494603"
     inkscape:cx="33.350475"
     inkscape:cy="29.062557"
     inkscape:window-width="1920"
     inkscape:window-height="1036"
     inkscape:window-x="0"
     inkscape:window-y="0"
     inkscape:window-maximized="1"
     inkscape:current-layer="layer1" />
  <defs
     id="defs10461">
    <linearGradient
       inkscape:collect="always"
       id="linearGradient10399">
      <stop
         style="stop-color:#d45500;stop-opacity:1"
         offset="0"
         id="stop10395" />
      <stop
         style="stop-color:#ffd42a;stop-opacity:1"
         offset="1"
         id="stop10397" />
    </linearGradient>
    <linearGradient
       inkscape:collect="always"
       xlink:href="#linearGradient10399"
       id="linearGradient951"
       x1="36.723049"
       y1="97.962669"
       x2="62.879986"
       y2="82.698334"
       gradientUnits="userSpaceOnUse" />
    <linearGradient
       inkscape:collect="always"
       xlink:href="#linearGradient10399"
       id="linearGradient1902"
       gradientUnits="userSpaceOnUse"
       x1="36.723049"
       y1="97.962669"
       x2="62.879986"
       y2="82.698334" />
    <linearGradient
       inkscape:collect="always"
       xlink:href="#linearGradient10399"
       id="linearGradient1904"
       gradientUnits="userSpaceOnUse"
       x1="36.723049"
       y1="97.962669"
       x2="62.879986"
       y2="82.698334" />
    <linearGradient
       inkscape:collect="always"
       xlink:href="#linearGradient10399"
       id="linearGradient1906"
       gradientUnits="userSpaceOnUse"
       x1="36.723049"
       y1="97.962669"
       x2="62.879986"
       y2="82.698334" />
    <linearGradient
       inkscape:collect="always"
       xlink:href="#linearGradient10399"
       id="linearGradient1908"
       gradientUnits="userSpaceOnUse"
       x1="36.723049"
       y1="97.962669"
       x2="62.879986"
       y2="82.698334" />
    <linearGradient
       inkscape:collect="always"
       xlink:href="#linearGradient10399"
       id="linearGradient1910"
       gradientUnits="userSpaceOnUse"
       x1="36.723049"
       y1="97.962669"
       x2="62.879986"
       y2="82.698334" />
    <linearGradient
       inkscape:collect="always"
       xlink:href="#linearGradient10399"
       id="linearGradient1912"
       gradientUnits="userSpaceOnUse"
       x1="36.723049"
       y1="97.962669"
       x2="62.879986"
       y2="82.698334" />
  </defs>
  <g
     inkscape:label="Layer 1"
     inkscape:groupmode="layer"
     id="layer1"
     transform="translate(-63.413222,-107.9928)">
    <g
       id="g366">
      <g
         id="g10716"
         transform="rotate(-15,173.83886,3.9292313)"
         style="fill:url(#linearGradient951);fill-opacity:1">
        <path
           style="fill:url(#linearGradient1902);fill-opacity:1;stroke-width:0.0357992"
           d="m 52.258596,101.66892 c -2.761104,0.56377 -5.72485,1.40694 -8.283143,0.53145 -0.33609,7.6e-4 -0.605891,0.27219 -0.604897,0.60823 7.12e-4,0.33596 0.326546,0.72507 0.62052,0.97407 2.412904,2.04358 6.123687,1.22695 8.331141,-0.75105 0.25028,-0.22426 0.545546,-0.42111 0.544616,-0.75711 -8.11e-4,-0.28344 -0.194362,-0.51971 -0.456492,-0.58618 l 2e-6,-7e-4 c -0.04865,-0.0135 -0.09946,-0.0183 -0.151753,-0.0186 z"
           id="path10325-0"
           sodipodi:nodetypes="ccccsccccc" />
        <path
           style="fill:url(#linearGradient1904);fill-opacity:1;stroke-width:0.0357992"
           d="m 52.303834,99.16449 c -2.740885,0.696813 -5.671067,1.16999 -8.427022,0.435289 -0.34607,9.86e-4 -0.624019,0.280454 -0.623067,0.626431 9.34e-4,0.34603 0.280356,0.62398 0.626443,0.62308 2.979569,0.91151 5.815804,0.11546 8.427028,-0.43572 0.346014,-0.001 0.624043,-0.27973 0.623061,-0.625717 -6.43e-4,-0.292102 -0.199757,-0.536032 -0.46979,-0.604356 l -10e-7,7.12e-4 c -0.04979,-0.01377 -0.102749,-0.01935 -0.156658,-0.0194 z"
           id="path10327-9"
           sodipodi:nodetypes="ccsccccccc" />
        <path
           style="fill:url(#linearGradient1906);fill-opacity:1;stroke-width:0.0357992"
           d="m 39.059685,80.280058 -0.01473,4.723923 c 1.055378,-2.31323 2.48922,-4.09009 4.739359,-4.709193 z"
           id="path10329-3" />
        <path
           style="fill:url(#linearGradient1908);fill-opacity:1;stroke-width:0.0357992"
           d="m 51.958811,80.257349 c 2.313232,1.055373 4.090793,2.488519 4.709897,4.738654 l 0.01477,-4.723925 z"
           id="path10331-6" />
        <path
           id="path10333-0"
           style="fill:url(#linearGradient1910);fill-opacity:1;stroke-width:0.0335853"
           d="m 47.905681,78.942259 -0.639169,0.002 c -0.938635,0.0023 -1.691537,0.81801 -1.689033,1.82857 l 4.67e-4,0.353642 c -2.369779,0.973681 -4.06891,3.770171 -4.060689,7.081872 l 0.01168,4.862437 -0.05513,5.03e-4 -4.224685,3.279353 c -0.395157,0.584678 -0.316587,1.16944 0.0042,1.754119 l 4.27281,-0.01258 6.438419,-0.01811 6.438416,0.01811 4.272809,0.01258 c 0.320792,-0.584679 0.399361,-1.169441 0.0043,-1.754119 l -4.224685,-3.279353 -0.05513,-5.03e-4 0.01168,-4.862437 c 0.0083,-3.311701 -1.690909,-6.108191 -4.060688,-7.081872 l 4.67e-4,-0.353642 c 0.0025,-1.01056 -0.750398,-1.826233 -1.689033,-1.82857 l -0.639169,-0.002 v 5.03e-4 c -0.01982,0 -0.0392,9.09e-4 -0.05887,0.0015 -0.01966,-6e-4 -0.03905,-0.0015 -0.05887,-0.0015 z" />
        <path
           style="fill:url(#linearGradient1912);fill-opacity:1;stroke-width:0.0357992"
           d="m 52.303834,99.16449 c -2.740885,0.696813 -5.671067,1.16999 -8.427022,0.435289 -0.34607,9.86e-4 -0.624019,0.280454 -0.623067,0.626431 9.34e-4,0.34603 0.280356,0.62398 0.626443,0.62308 2.979569,0.91151 5.815804,0.11546 8.427028,-0.43572 0.346014,-0.001 0.624043,-0.27973 0.623061,-0.625717 -6.43e-4,-0.292102 -0.199757,-0.536032 -0.46979,-0.604356 l -10e-7,7.12e-4 c -0.04979,-0.01377 -0.102749,-0.01935 -0.156658,-0.0194 z"
           id="path10335-6"
           sodipodi:nodetypes="ccsccccccc" />
      </g>
      <g
         aria-label="mindery"
         id="text1850"
         style="font-size:19.7556px;font-family:'Lilita One';-inkscape-font-specification:'Lilita One, Normal';fill:#7137c8;stroke-width:0.987999">
        <path
           d="m 103.38694,126.33131 q 0,0.13829 -1.69898,0.13829 -1.67923,0 -1.67923,-0.1778 v -5.74888 q 0,-0.98778 -0.651931,-0.98778 -0.335845,0 -0.889002,0.43463 v 6.32179 q 0,0.19755 -1.698982,0.19755 -1.679226,0 -1.679226,-0.21731 v -6.46008 h -0.49389 q -0.651934,0 -0.651934,-1.36313 0,-0.61243 0.237067,-1.24461 0.316089,-0.86924 1.027291,-0.86924 0.711202,0 1.363136,0.37535 0.671691,0.37536 0.80998,0.7112 1.224847,-1.08655 2.706521,-1.08655 1.50142,0 2.41018,0.92851 1.0668,-0.92851 2.56823,-0.92851 3.25967,0 3.25967,3.97087 v 6.0057 q 0,0.13829 -1.69898,0.13829 -1.67923,0 -1.67923,-0.1778 v -5.74888 q 0,-0.98778 -0.65193,-0.98778 -0.3556,0 -0.90876,0.43463 z"
           style="stroke-width:0.988"
           id="path336" />
        <path
           d="m 113.62034,126.31156 q 0,0.15804 -1.81751,0.15804 -1.79776,0 -1.79776,-0.13829 v -9.7 q 0,-0.13828 1.79776,-0.13828 1.81751,0 1.81751,0.11853 z m 0,-10.86558 q 0,0.13829 -1.81751,0.13829 -1.79776,0 -1.79776,-0.11854 v -2.8448 q 0,-0.19756 1.79776,-0.19756 1.81751,0 1.81751,0.11854 z"
           style="stroke-width:0.988"
           id="path338" />
        <path
           d="m 119.52728,126.31156 q 0,0.13829 -1.4224,0.13829 -1.97556,-0.0593 -1.97556,-0.21731 v -6.40082 h -0.51365 q -0.51364,0 -0.67169,-0.86924 -0.0395,-0.25683 -0.0395,-0.51365 0,-0.61242 0.23707,-1.22485 0.3556,-0.86924 1.10631,-0.86924 0.75072,0 1.34338,0.3556 0.59267,0.3556 0.79023,0.7112 1.2446,-1.0668 2.96334,-1.0668 1.71874,0 2.4892,0.92851 0.77047,0.92851 0.77047,3.04236 v 5.92668 q 0,0.23707 -1.69898,0.23707 -1.67922,0 -1.67922,-0.23707 v -5.70937 q 0,-0.98778 -0.69145,-0.98778 -0.19756,0 -0.55316,0.1778 -0.3556,0.15805 -0.45438,0.23707 z"
           style="stroke-width:0.988"
           id="path340" />
        <path
           d="m 131.28188,112.71971 q 0,-0.29634 1.56069,-0.29634 0.5334,0 1.22485,0.079 0.7112,0.0593 0.7112,0.1778 v 10.41121 h 0.69144 q 0.49389,0 0.65194,0.889 0.0395,0.25682 0.0395,0.7112 0,0.43462 -0.27658,1.0668 -0.39511,0.86925 -1.26436,0.86925 -0.65193,0 -1.16558,-0.25682 -0.49389,-0.25683 -0.67169,-0.53341 l -0.1778,-0.25682 q -1.08656,1.04705 -2.72627,1.04705 -1.63971,0 -2.8053,-1.36314 -1.16558,-1.36313 -1.16558,-3.79307 0,-2.4497 1.22485,-3.77332 1.22485,-1.34338 3.06212,-1.34338 0.5334,0 1.08656,0.11853 z m -0.65194,6.79592 q -1.10631,0 -1.10631,1.99532 0,1.00753 0.31609,1.46191 0.31609,0.43463 0.69144,0.43463 0.39512,0 0.75072,-0.33585 v -3.35845 q -0.33585,-0.19756 -0.65194,-0.19756 z"
           style="stroke-width:0.988"
           id="path342" />
        <path
           d="m 144.91325,125.89669 q -1.2446,0.73096 -3.20041,0.73096 -1.9558,0 -3.29918,-1.32363 -1.34338,-1.34338 -1.34338,-3.69429 0,-2.37068 1.28411,-3.81284 1.30387,-1.44215 3.27943,-1.44215 1.97556,0 3.04236,1.00753 1.08656,1.00754 1.08656,2.4497 0,3.2004 -3.67454,3.2004 h -1.36314 q 0,0.59267 0.31609,0.82974 0.33585,0.21731 0.96803,0.21731 1.38289,0 2.62749,-0.63218 0.0198,-0.0198 0.1778,0.27658 0.47414,0.84949 0.47414,1.44216 0,0.57291 -0.37536,0.75071 z m -2.46945,-5.70937 q 0,-0.82973 -0.80998,-0.82973 -0.37535,0 -0.65193,0.23706 -0.25683,0.21732 -0.25683,0.65194 v 0.61242 h 1.06681 q 0.65193,0 0.65193,-0.67169 z"
           style="stroke-width:0.988"
           id="path344" />
        <path
           d="m 151.37333,126.41034 q 0,0.13829 -1.79776,0.13829 -1.79775,-0.0395 -1.79775,-0.15805 v -6.55886 h -0.53341 q -0.31609,0 -0.51364,-0.37535 -0.1778,-0.39512 -0.1778,-0.96803 0,-2.1336 1.26436,-2.1336 0.889,0 1.48167,0.55315 0.59266,0.5334 0.59266,1.22485 0.41487,-0.80998 1.10632,-1.28411 0.7112,-0.49389 1.44216,-0.49389 1.14582,0 1.38289,0.59266 0.0593,0.15805 0.0593,0.47414 0,0.29633 -0.19756,1.08656 -0.1778,0.79022 -0.37536,1.14582 -0.19755,0.3556 -0.23706,0.3556 -0.0395,0 -0.37536,-0.13829 -0.31609,-0.15804 -0.57291,-0.15804 -0.75072,0 -0.75072,1.18533 z"
           style="stroke-width:0.988"
           id="path346" />
        <path
           d="m 154.17863,116.65107 q 0,-0.21731 1.79776,-0.21731 1.81751,0 1.87678,0.19755 l 1.4224,4.66233 1.36314,-4.70184 q 0.079,-0.15804 1.22485,-0.15804 2.62749,0 2.50896,0.25682 l -4.64257,13.2165 q -0.0198,0.11853 -1.08656,0.11853 -1.04704,0 -1.9558,-0.079 -0.90876,-0.0593 -0.86925,-0.15805 l 1.71874,-4.14867 z"
           style="stroke-width:0.988"
           id="path348" />
      </g>
    </g>
  </g>
</svg>
