<?xml version="1.0" encoding="UTF-8" standalone="no"?>
<svg
   xmlns:dc="http://purl.org/dc/elements/1.1/"
   xmlns:cc="http://creativecommons.org/ns#"
   xmlns:rdf="http://www.w3.org/1999/02/22-rdf-syntax-ns#"
   xmlns:svg="http://www.w3.org/2000/svg"
   xmlns="http://www.w3.org/2000/svg"
   xmlns:xlink="http://www.w3.org/1999/xlink"
   xmlns:sodipodi="http://sodipodi.sourceforge.net/DTD/sodipodi-0.dtd"
   xmlns:inkscape="http://www.inkscape.org/namespaces/inkscape"
   width="5480.146"
   height="2284.5149"
   viewBox="0 0 1449.9553 604.44458"
   version="1.1"
   id="svg1289"
   inkscape:version="1.0.2-2 (e86c870879, 2021-01-15)"
   sodipodi:docname="minderyv1.svg">
  <defs
     id="defs1283">
    <linearGradient
       id="linearGradient1888"
       x1="32.390999"
       y1="62.701"
       x2="31.726"
       y2="1.952"
       gradientUnits="userSpaceOnUse">
      <stop
         offset="0"
         stop-color="#e93e3a"
         id="stop1880"
         style="stop-color:#4400aa;stop-opacity:1" />
      <stop
         offset="0.60784751"
         stop-color="#ed683c"
         id="stop1882" />
      <stop
         offset="0.79938167"
         stop-color="#f3903f"
         id="stop1884" />
      <stop
         offset="1"
         stop-color="#fdc70c"
         id="stop1886" />
    </linearGradient>
    <linearGradient
       inkscape:collect="always"
       xlink:href="#linearGradient1888"
       id="linearGradient1253"
       gradientUnits="userSpaceOnUse"
       x1="-561.33014"
       y1="-5571.6304"
       x2="-692.34741"
       y2="-7553.6831"
       gradientTransform="matrix(0.26458334,0,0,0.26458334,476.1306,1913.1517)" />
    <linearGradient
       id="linearGradient1251"
       x1="32.390999"
       y1="62.701"
       x2="31.726"
       y2="1.952"
       gradientUnits="userSpaceOnUse">
      <stop
         offset="0"
         stop-color="#e93e3a"
         id="stop1243"
         style="stop-color:#4400aa;stop-opacity:1" />
      <stop
         offset="0.42265353"
         stop-color="#ed683c"
         id="stop1245" />
      <stop
         offset="0.79938167"
         stop-color="#f3903f"
         id="stop1247" />
      <stop
         offset="1"
         stop-color="#fdc70c"
         id="stop1249" />
    </linearGradient>
    <linearGradient
       inkscape:collect="always"
       xlink:href="#linearGradient1251"
       id="linearGradient1149"
       x1="-1577.2673"
       y1="-5618.1421"
       x2="-1570.2882"
       y2="-7802.5879"
       gradientUnits="userSpaceOnUse"
       spreadMethod="repeat"
       gradientTransform="matrix(0.26458334,0,0,0.26458334,476.1306,1913.1517)" />
  </defs>
  <sodipodi:namedview
     id="base"
     pagecolor="#ffffff"
     bordercolor="#666666"
     borderopacity="1.0"
     inkscape:pageopacity="0.0"
     inkscape:pageshadow="2"
     inkscape:zoom="0.12374369"
     inkscape:cx="2184.7949"
     inkscape:cy="1011.7709"
     inkscape:document-units="mm"
     inkscape:current-layer="layer1"
     inkscape:document-rotation="0"
     showgrid="false"
     showborder="false"
     inkscape:showpageshadow="false"
     units="px"
     inkscape:window-width="1920"
     inkscape:window-height="1001"
     inkscape:window-x="-9"
     inkscape:window-y="-9"
     inkscape:window-maximized="1" />
  <metadata
     id="metadata1286">
    <rdf:RDF>
      <cc:Work
         rdf:about="">
        <dc:format>image/svg+xml</dc:format>
        <dc:type
           rdf:resource="http://purl.org/dc/dcmitype/StillImage" />
        <dc:title></dc:title>
      </cc:Work>
    </rdf:RDF>
  </metadata>
  <g
     inkscape:label="Layer 1"
     inkscape:groupmode="layer"
     id="layer1"
     transform="translate(641.82288,162.37107)">
    <path
       id="rect918-2"
       style="fill:url(#linearGradient1253);fill-opacity:1;stroke:url(#linearGradient1149);stroke-width:0.264583"
       d="m -351.07527,-162.23589 c -0.38153,-0.0148 -0.77208,0.027 -1.16115,0.13126 l -1.46399,0.39275 c -2.0751,0.55602 -3.29798,2.67395 -2.74196,4.74906 l 9.78546,36.52025 c 0.55599,2.0751 2.67396,3.29798 4.74906,2.74195 l 1.46449,-0.39221 c 2.0751,-0.55603 3.29798,-2.67449 2.74196,-4.74959 l -9.78546,-36.51973 c -0.45175,-1.68603 -1.93511,-2.80995 -3.58841,-2.87374 z m 113.53779,10.93578 c -1.37461,-0.0371 -2.72179,0.66189 -3.46025,1.94096 l -18.90429,32.74322 c -1.07413,1.86047 -0.44143,4.2227 1.41904,5.29683 l 1.3131,0.75811 c 1.86047,1.07413 4.2232,0.44093 5.29736,-1.41957 l 18.90426,-32.74269 c 1.07416,-1.8605 0.44093,-4.2232 -1.41954,-5.29736 l -1.3131,-0.75808 c -0.58139,-0.33568 -1.21176,-0.50456 -1.83658,-0.52142 z m -66.90135,43.53015 a 91.586169,91.586169 0 0 0 -23.54739,3.12024 91.586169,91.586169 0 0 0 -0.11938,0.032 v 0 a 91.586169,91.586169 0 0 0 -64.64102,112.1373482 91.586169,91.586169 0 0 0 29.8912,46.7015258 l 12.24576,-10.243291 A 75.933519,75.933519 0 0 1 -377.62764,3.4686985 75.933519,75.933519 0 0 1 -324.0366,-89.5034 a 75.933519,75.933519 0 0 1 0.10181,-0.02738 75.933519,75.933519 0 0 1 92.99949,53.693352 75.933519,75.933519 0 0 1 -3.72793,49.970612 l 13.93248,3.733112 1.64539,-0.440822 a 91.586169,91.586169 0 0 0 3.26957,-57.314334 91.586169,91.586169 0 0 0 -88.62251,-67.88164 z m -140.02661,15.554621 c -1.37459,-0.03715 -2.72176,0.661881 -3.46024,1.940957 l -0.75809,1.312571 c -1.07415,1.860497 -0.44093,4.2232 1.41955,5.297355 l 32.74322,18.904268 c 1.86049,1.074156 4.22269,0.440929 5.29682,-1.419542 l 0.75811,-1.312572 c 1.07416,-1.860497 0.44093,-4.223199 -1.41957,-5.297355 l -32.74322,-18.904268 c -0.58139,-0.335677 -1.21176,-0.50456 -1.83658,-0.521414 z m 131.35994,30.007984 c -1.14358,0.0127 -2.30536,0.167719 -3.46334,0.477996 -7.41095,1.985751 -11.77843,9.550797 -9.79268,16.96175 l 0.95602,3.567245 c 0.24495,0.914162 0.57528,1.781387 0.97925,2.596727 -17.94751,11.112738 -27.03116,34.1754624 -20.87779,57.140185 l 8.75297,32.665697 -0.94673,0.253736 -27.31667,33.003147 3.44733,12.86383 33.73747,-9.039754 93.64494,-25.092026 33.73747,-9.040257 -3.44681,-12.86383 -40.15827,-14.923109 -8.75295,-32.6657241 c -6.04938,-22.5765529 -24.89938,-37.8712419 -45.58223,-38.9996639 -0.0403,-1.015682 -0.18944,-2.043086 -0.46405,-3.068029 l -0.95552,-3.567245 c -1.67547,-6.252977 -7.32292,-10.339149 -13.49841,-10.270675 z m 156.90674,23.595965 c -0.38156,-0.01482 -0.77211,0.02649 -1.16118,0.130757 l -36.52025,9.785959 c -2.07511,0.556022 -3.29798,2.673959 -2.74196,4.74906 l 0.39222,1.464521 c 0.55602,2.075074 2.67448,3.297952 4.74959,2.74193 l 36.52025,-9.785429 c 2.0751,-0.556022 3.29798,-2.674488 2.74196,-4.749589 l -0.39225,-1.463992 c -0.45175,-1.686031 -1.93511,-2.809426 -3.58838,-2.873217 z m -265.74196,74.84351 c -0.38152,-0.01482 -0.77208,0.02699 -1.16115,0.13126 l -36.52025,9.785429 c -2.0751,0.556022 -3.29798,2.674488 -2.74196,4.749589 l 0.39222,1.463992 c 0.55602,2.075101 2.67449,3.297979 4.74959,2.741957 l 36.52025,-9.785456 c 2.07511,-0.556022 3.29798,-2.673959 2.74196,-4.749059 l -0.39224,-1.464522 c -0.45175,-1.686005 -1.93511,-2.809425 -3.58842,-2.87319 z m 173.45714,36.26755 c -0.45421,-0.01746 -0.91969,0.03194 -1.38287,0.156051 l -58.85945,15.771654 c -2.47034,0.661908 -3.92581,3.18307 -3.2639,5.653405 0.66193,2.470309 3.1831,3.926311 5.6534,3.264403 l 58.85998,-15.771125 c 2.47034,-0.661935 3.92581,-3.183625 3.2639,-5.653934 -0.53782,-2.00713 -2.30288,-3.344519 -4.27106,-3.420454 z m 407.42217,7.144782 c -21.41524,0 -32.12311,2.03319 -32.12311,6.09936 v 77.257308 c -7.59021,-1.62645 -15.04487,-2.43965 -22.36402,-2.43965 -25.21029,0 -46.21871,9.21666 -63.025599,27.64999 -16.806889,18.16227 -25.210347,44.05024 -25.210347,77.664 0,33.34268 7.997137,59.36625 23.990776,78.07068 15.99364,18.70443 35.240094,28.05668 57.739626,28.05668 22.499534,0 41.204064,-7.18346 56.113394,-21.5506 l 3.65918,5.28598 c 2.4397,3.7951 7.04803,7.45463 13.82501,10.97865 7.04805,3.52403 15.04519,5.28597 23.99078,5.28597 11.92747,0 20.60165,-5.96341 26.02322,-17.89088 3.7951,-8.6745 5.69268,-15.99359 5.69268,-21.95732 0,-6.2348 -0.27071,-11.11436 -0.81287,-14.63837 -2.16863,-12.19853 -6.64185,-18.29811 -13.41882,-18.29811 H 198.78731 V 84.93043 c 0,-1.626473 -4.87953,-2.845964 -14.63837,-3.659214 -9.48775,-1.084316 -17.89123,-1.626764 -25.21035,-1.626764 z m -403.42604,10.318221 c -0.45418,-0.01746 -0.91916,0.03196 -1.38234,0.156078 l -58.85945,15.771629 c -2.47033,0.66193 -3.92633,3.18309 -3.2644,5.6534 0.66191,2.47034 3.1836,3.92634 5.65391,3.26441 l 58.85945,-15.771129 c 2.47033,-0.661908 3.92633,-3.183599 3.2644,-5.653908 -0.53779,-2.007155 -2.30338,-3.344545 -4.27157,-3.42048 z m 6.14588,23.147447 c -0.45419,-0.0175 -0.91917,0.0319 -1.38235,0.15605 l -58.85944,15.77112 c -2.47034,0.66194 -3.92634,3.1836 -3.26441,5.65394 0.66191,2.47031 3.82199,4.69908 6.46989,5.95725 21.73711,10.32862 46.39585,1.37239 58.77832,-17.48473 1.40378,-2.13778 3.19149,-4.16287 2.52955,-6.63318 -0.53779,-2.00713 -2.30338,-3.34452 -4.27156,-3.42045 z m -377.32529,47.45135 c -9.75884,0 -16.80718,5.96395 -21.14445,17.89142 -3.25294,8.6745 -4.87928,17.21358 -4.87928,25.61704 0,18.70442 4.4727,28.05668 13.41829,28.05668 h 10.16579 v 132.96397 c 0,2.98189 11.52054,4.4726 34.56223,4.4726 23.31276,0 34.96945,-1.35512 34.96945,-4.06588 V 235.37913 c 7.59021,-5.96373 13.68925,-8.94519 18.29758,-8.94519 8.94559,0 13.41832,6.77661 13.41832,20.33056 v 118.32608 c -3e-5,2.43973 11.52104,3.65922 34.56273,3.65922 23.31279,0 34.96893,-0.94877 34.96893,-2.84634 V 235.37913 c 7.5902,-5.96373 13.82537,-8.94519 18.70479,-8.94519 8.94562,0 13.41832,6.77661 13.41832,20.33056 v 118.32608 c 0,2.43973 11.52054,3.65922 34.56223,3.65922 23.31276,0 34.96945,-0.94877 34.96945,-2.84634 V 242.2919 c 0,-54.48681 -22.36404,-81.73043 -67.09204,-81.73043 -20.60196,0 -38.22207,6.3703 -52.86033,19.11099 -12.46963,-12.74069 -29.00535,-19.11099 -49.60732,-19.11099 -20.3309,0 -38.89981,7.45469 -55.70667,22.36401 -1.89756,-4.60832 -7.45466,-9.48787 -16.67134,-14.63839 -8.94559,-5.15048 -18.29784,-7.72562 -28.05668,-7.72562 z m 433.04696,0 c -10.30099,0 -17.89128,5.96395 -22.7707,17.89142 -3.25295,8.40343 -4.87929,16.80691 -4.87929,25.21035 0,3.52403 0.27072,7.04794 0.81285,10.57195 2.16866,11.92747 6.77696,17.89142 13.82501,17.89142 h 10.57249 v 131.7439 c 0,2.16863 13.55373,3.65988 40.66159,4.47313 19.51768,0 29.27678,-0.9488 29.27678,-2.84634 V 234.97294 c 1.35538,-1.08429 4.47244,-2.71116 9.35188,-4.87979 4.8794,-2.43972 8.674554,-3.65921 11.385343,-3.65921 9.487747,0 14.231699,6.77661 14.231699,20.33056 v 117.5127 c 0,3.25295 11.521044,4.87929 34.562734,4.87929 23.312782,0 34.968922,-1.62634 34.968922,-4.87929 V 242.2919 c 0,-29.00542 -5.285873,-49.87875 -15.857935,-62.61944 -10.572063,-12.74069 -27.650229,-19.11099 -51.234077,-19.11099 -23.583846,0 -43.914696,7.31906 -60.992676,21.95732 -2.71079,-4.87942 -8.13226,-9.75847 -16.26463,-14.63786 -8.13236,-4.87942 -17.34902,-7.31946 -27.64999,-7.31946 z m 522.503,0 c -27.10787,0 -49.60753,9.89473 -67.49872,29.68347 -17.62011,19.78875 -26.42992,45.94742 -26.42992,78.47685 0,32.25837 9.21665,57.6044 27.65,76.03776 18.43335,18.16225 41.06811,27.24327 67.9049,27.24327 26.83678,0 48.79451,-5.01464 65.87246,-15.04455 5.1505,-2.43969 7.72563,-7.59047 7.72563,-15.45177 0,-8.13237 -3.25321,-18.02654 -9.7591,-29.68294 -2.16862,-4.06617 -3.38813,-5.96374 -3.6592,-5.69267 -17.07796,8.67449 -35.10492,13.0116 -54.08042,13.0116 -8.67452,0 -15.31603,-1.49072 -19.92437,-4.4726 -4.33726,-3.25292 -6.50555,-8.94567 -6.50555,-17.07801 h 28.05617 c 50.42064,0 75.63105,-21.95721 75.63105,-65.87196 0,-19.78875 -7.45469,-36.59569 -22.36401,-50.4207 -14.63825,-13.82501 -35.51105,-20.73775 -62.61892,-20.73775 z m 127.27079,0 c -17.34904,0 -26.02374,14.63815 -26.02374,43.91465 0,7.86127 1.22002,14.50279 3.65973,19.92436 2.71078,5.15049 6.2347,7.72613 10.57196,7.72613 h 10.97866 v 134.99693 c 0,1.62647 12.33423,2.71089 37.00239,3.25305 24.66816,0 37.00188,-0.9488 37.00188,-2.84636 v -113.4463 c 0,-16.2647 5.15078,-24.39747 15.45177,-24.39747 3.52402,0 7.45479,1.0844 11.79205,3.25303 4.60833,1.89754 7.18347,2.84633 7.72562,2.84633 0.54216,0 2.1685,-2.43951 4.87929,-7.31893 2.71079,-4.87942 5.28592,-12.74093 7.72563,-23.58408 2.71079,-10.84316 4.06642,-18.29785 4.06642,-22.36402 0,-4.33726 -0.40685,-7.58994 -1.22009,-9.75857 -3.25294,-8.13237 -12.74081,-12.19875 -28.46337,-12.19875 -10.02992,0 -19.92411,3.38884 -29.68295,10.1658 -9.48775,6.50589 -17.07805,15.31567 -22.7707,26.42991 0,-9.48777 -4.06586,-17.89123 -12.19822,-25.21034 -8.13236,-7.59021 -18.29779,-11.38537 -30.49633,-11.38537 z m 167.9329,1.62677 c -24.66816,0 -37.00187,1.49074 -37.00187,4.47259 l 69.12498,185.01146 -35.37614,85.38962 c -0.54215,1.35541 5.4218,2.4398 17.89142,3.25303 12.46962,1.08431 25.88825,1.62626 40.25542,1.62626 14.63825,0 22.09242,-0.81317 22.36349,-2.43965 l 95.55542,-272.02731 c 1.62647,-3.52404 -15.58679,-5.286 -51.64027,-5.286 -15.72255,0 -24.12603,1.08442 -25.21034,3.25305 l -28.05669,96.77495 -29.27677,-95.9621 c -0.81323,-2.71079 -13.68941,-4.0659 -38.62865,-4.0659 z m -909.90366,2.67324 c -24.66817,0 -37.00238,0.94877 -37.00238,2.84633 v 199.64933 c 0,1.89754 12.33421,2.84633 37.00238,2.84633 24.93928,0 37.40859,-1.08442 37.40859,-3.25305 v -199.6493 c 0,-1.62647 -12.46931,-2.43964 -37.40859,-2.43964 z m 614.69997,57.50605 c 11.11422,0 16.67133,5.6927 16.67133,17.07801 0,9.21668 -4.4727,13.82501 -13.4183,13.82501 h -21.95732 v -12.60491 c 0,-5.96374 1.76196,-10.43697 5.28599,-13.41882 3.7951,-3.25295 8.2678,-4.87929 13.4183,-4.87929 z m -226.48591,3.25303 c 4.33726,0 8.80996,1.35511 13.41829,4.0659 v 69.1255 c -4.87942,4.60835 -10.02967,6.91224 -15.45125,6.91224 -5.15051,0 -9.89443,-2.98196 -14.231696,-8.94573 -4.337262,-6.2348 -6.506052,-16.26462 -6.506052,-30.08963 0,-27.37895 7.590288,-41.06828 22.770708,-41.06828 z" />
  </g>
</svg>
